<svg width="20" height="20" viewBox="0 0 20 20" fill="none" xmlns="http://www.w3.org/2000/svg">
<g clip-path="url(#clip0_70_298)">
<path d="M10.7071 18.2929L18.2929 10.7071C18.9229 10.0771 20 10.5233 20 11.4142V19C20 19.5523 19.5523 20 19 20H11.4142C10.5233 20 10.0771 18.9229 10.7071 18.2929Z" fill="#FB8500" stroke="black"/>
<path d="M10.7071 0.292893L0.292893 10.7071C0.105357 10.8946 0 11.149 0 11.4142V19C0 19.5523 0.447715 20 1 20H8.58579C8.851 20 9.10536 19.8946 9.29289 19.7071L19.7071 9.29289C19.8946 9.10536 20 8.851 20 8.58579V1C20 0.447715 19.5523 0 19 0H11.4142C11.149 0 10.8946 0.105357 10.7071 0.292893Z" fill="#FFB703" stroke="black"/>
<path d="M0 8.58579V1C0 0.447715 0.447715 0 1 0H8.58579C9.47669 0 9.92286 1.07714 9.29289 1.70711L1.70711 9.29289C1.07714 9.92286 0 9.47669 0 8.58579Z" fill="#219EBC" stroke="black"/>
</g>
<defs>
<clipPath id="clip0_70_298">
<rect width="20" height="20" fill="white"/>
</clipPath>
</defs>
</svg>
